<?xml version="1.0" encoding="UTF-8"?>
<!-- Created with Inkscape (http://www.inkscape.org/) --><svg width="100" height="100" version="1.1" viewBox="0 0 26.458 26.458" xmlns="http://www.w3.org/2000/svg"><g stroke-miterlimit="0"><path d="m21.215 17.983a8.0224 8.0224 0 0 1-8.0224 8.0224 8.0224 8.0224 0 0 1-8.0224-8.0224 8.0224 8.0224 0 0 1 8.0224-8.0224 8.0224 8.0224 0 0 1 8.0224 8.0224z" fill="#ffcc4d" stroke-width="2.0566"/><ellipse cx="10.201" cy="18.995" rx="2.1632" ry="2.9669" fill="#fff" stroke-width="2.7405"/><ellipse cx="10.157" cy="19.032" rx="1.2979" ry="2.1001" fill="#241f31" stroke-width="1.786"/><ellipse cx="16.258" cy="18.995" rx="2.1632" ry="2.9669" fill="#fff" stroke-width="2.7405"/><ellipse cx="16.214" cy="19.032" rx="1.2979" ry="2.1001" fill="#241f31" stroke-width="1.786"/><path d="m13.229 0.45323c-1.4209 0.020564-3.1244 7.7435-6.4803 12.155-2.4656 0.55694-3.9019 1.4007-3.9032 2.2931-3.676e-4 1.6219 4.6488 2.9367 10.384 2.9366 5.7348-4.2e-5 10.384-1.3148 10.383-2.9366 1.7e-5 -0.92161-1.53-1.7898-4.132-2.3446-2.2716-2.1785-5.0677-12.026-6.2515-12.104z" fill="#813d9c" stroke-width="2.7002"/><path d="m15.127 22.442a1.8987 1.8987 0 0 1-1.8987 1.8987 1.8987 1.8987 0 0 1-1.8987-1.8987z" fill="#fff" stroke="#241f31" stroke-linecap="round" stroke-linejoin="round" stroke-width=".4"/></g><path d="m18.984 12.564-1.6539 2.5664c-0.60325 0.93607-0.55932 1.836 0.22813 2.6235 0.78744 0.78745 2.0641 0.78745 2.8516 0 0.78744-0.78744 0.83138-1.6874 0.22813-2.6235z" fill="#1c71d8"/></svg>