<?xml version="1.0" encoding="UTF-8"?>
<svg width="100" height="100" version="1.1" viewBox="0 0 26.458 26.458" xmlns="http://www.w3.org/2000/svg"><defs><clipPath id="clipPath7716"><rect x="-8.4667" y="11.311" width="16.867" height="2.3482" fill="#1c71d8"/></clipPath></defs><g transform="translate(13.229 .099219)"><path d="m0 0a10.583 10.583 0 0 0-10.583 10.583 10.583 10.583 0 0 0 5.2917 9.1653v2.8789c0 0.98624 0.79401 1.7803 1.7803 1.7803h7.0228c0.98624 0 1.7803-0.79401 1.7803-1.7803v-2.8789a10.583 10.583 0 0 0 5.2917-9.1653 10.583 10.583 0 0 0-10.583-10.583z" fill="#c0bfbc"/><g stroke-linecap="round"><path d="m-4.1233 6.6146c-1.8142 0-3.2851 1.4903-3.2851 3.329 0 1.8387 1.489 3.0706 3.2851 3.3295 2.0702 0.29843 3.6163-1.1041 3.2846-3.3295-0.27105-1.818-1.4704-3.329-3.2846-3.329zm8.2465 0c-1.8142 0-3.0135 1.511-3.2846 3.329-0.33178 2.2254 1.2144 3.6279 3.2846 3.3295 1.7961-0.25892 3.2851-1.4908 3.2851-3.3295-2e-7 -1.8387-1.4709-3.329-3.2851-3.329zm-4.6421 9.3266c-0.066792 0.0023-0.1424 0.01857-0.22738 0.05116-0.30747 0.11791-0.59531 0.2696-0.59531 0.60255-1e-6 0.33294 0.26653 0.60306 0.59531 0.60306s0.53273-0.2762 0.59531-0.60306c0.067608-0.35311-0.046118-0.66466-0.36794-0.65371zm1.002 0c-0.29459 0.01251-0.39733 0.31392-0.33228 0.65371 0.062578 0.32686 0.26653 0.60306 0.59531 0.60306 0.32878 0 0.59531-0.27012 0.59531-0.60306s-0.28784-0.48464-0.59531-0.60255c-0.10043-0.03851-0.18794-0.05435-0.26303-0.05116z" fill="#241f31" stroke-linejoin="round" stroke-miterlimit="0" stroke-width=".38091"/><path d="m3.1703 20.633v2.3997m-1.9844-2.3997v2.3997m-2.3812-2.3997v2.3997m-1.9844-2.3997v2.3997m-1.9714-1.2044h10.294" fill="none" stroke="#241f31" stroke-width=".25519px"/><path d="m8.1359 24.937a8.0367 1.3229 0 0 1-8.0367 1.3229 8.0367 1.3229 0 0 1-8.0367-1.3229 8.0367 1.3229 0 0 1 8.0367-1.3229 8.0367 1.3229 0 0 1 8.0367 1.3229zm-5.4901-13.031h2.6458v13.295h-2.6458zm-7.9375 0h2.6458v13.295h-2.6458z" fill="#1c71d8" stroke-linejoin="round" stroke-miterlimit="0" stroke-width=".4"/><path transform="translate(0 .0052913)" d="m-4.1233 6.6146c-1.8142 0-3.2851 1.4903-3.2851 3.329 0 1.8387 1.489 3.0706 3.2851 3.3295 2.0702 0.29843 3.6163-1.1041 3.2846-3.3295-0.27105-1.818-1.4704-3.329-3.2846-3.329zm8.2465 0c-1.8142 0-3.0135 1.511-3.2846 3.329-0.33178 2.2254 1.2144 3.6279 3.2846 3.3295 1.7961-0.25891 3.2851-1.4908 3.2851-3.3295-2e-7 -1.8387-1.4709-3.329-3.2851-3.329zm-4.6421 9.3266c-0.066793 0.0023-0.1424 0.01857-0.22738 0.05116-0.30747 0.11791-0.59531 0.2696-0.59531 0.60255-1e-6 0.33294 0.26653 0.60306 0.59531 0.60306 0.32878 0 0.53273-0.27621 0.59531-0.60306 0.067608-0.35311-0.046118-0.66466-0.36794-0.65371zm1.002 0c-0.29459 0.01251-0.39733 0.31392-0.33228 0.65371 0.062578 0.32686 0.26653 0.60306 0.59531 0.60306 0.32878 0 0.59531-0.27012 0.59531-0.60306-3e-7 -0.33294-0.28784-0.48464-0.59531-0.60255-0.10043-0.03851-0.18794-0.05435-0.26303-0.05116z" clip-path="url(#clipPath7716)" fill="#1c71d8" stroke-linejoin="round" stroke-miterlimit="0" stroke-width=".38091"/></g></g></svg>
