<?xml version="1.0" encoding="UTF-8"?>
<svg width="100" height="100" version="1.1" viewBox="0 0 26.458 26.458" xmlns="http://www.w3.org/2000/svg"><defs><clipPath id="clipPath4869"><path d="m18.613-2.421c-1.3872 0-2.5407 0.96429-2.8298 2.2619h-2.1353c-0.24533 0-0.47841 0.048888-0.69091 0.13746-0.35088-0.15012-0.73759-0.23306-1.1446-0.23306h-3.6174c-1.0839 0-2.0246 0.58904-2.5223 1.4655h-1.4986c-1.6064 0-2.8996 1.2931-2.8996 2.8996v3.4396c0 1.6064 1.2931 2.8996 2.8996 2.8996h3.6174c1.0839 0 2.0246-0.58904 2.5223-1.4655h1.4986c1.6064 0 2.8996-1.2931 2.8996-2.8996v-0.54105h1.1689c0.10591 0 0.2093-0.0094 0.31006-0.026872 0.27466 0.41636 0.65413 0.75682 1.1012 0.98495v1.2283c0 0.6872 0.55355 1.2402 1.2408 1.2402h1.5472c0.6872 0 1.2402-0.55303 1.2402-1.2402v-0.91209h0.90951c1.6064 0 2.9001-1.2931 2.9001-2.8996v-3.4396c0-1.6064-1.2937-2.8996-2.9001-2.8996zm4.84 10.913c-0.44806 0-0.80874 0.36067-0.80874 0.80874v0.95963c0 0.44806 0.36067 0.80874 0.80874 0.80874h1.0092c0.44807-1e-6 0.80874-0.36067 0.80874-0.80874v-0.95963c0-0.44807-0.36067-0.80874-0.80874-0.80874zm-10.738 1.3663c-0.44807 0-0.80874 0.36067-0.80874 0.80874v0.95963c0 0.44807 0.36067 0.80874 0.80874 0.80874h1.0087c0.44806 0 0.80925-0.36067 0.80925-0.80874v-0.95963c0-0.44806-0.36119-0.80874-0.80925-0.80874zm-10.614 7.0606c-0.76344 0.01921-1.372 0.64046-1.372 1.4087v1.6707c0 0.78043 0.62827 1.4087 1.4087 1.4087h1.757c0.78043 0 1.4092-0.62827 1.4092-1.4087v-1.6707c0-0.78043-0.62879-1.4087-1.4092-1.4087h-1.757c-0.012194 0-0.024572-3.17e-4 -0.03669 0zm20.284 2.1311c-0.67518 0-1.2185 0.54335-1.2185 1.2185v1.4459c0 0.67518 0.54335 1.2185 1.2185 1.2185h1.5203c0.67518 0 1.219-0.54335 1.219-1.2185v-1.4459c0-0.67518-0.54386-1.2185-1.219-1.2185z" display="none" fill="#33d17a"/><path class="powerclip" d="m-2.3542-2.3542h31.167v31.167h-31.167zm20.967-0.066874c-1.3872 0-2.5407 0.96429-2.8298 2.2619h-2.1353c-0.24533 0-0.47841 0.048888-0.69091 0.13746-0.35088-0.15012-0.73759-0.23306-1.1446-0.23306h-3.6174c-1.0839 0-2.0246 0.58904-2.5223 1.4655h-1.4986c-1.6064 0-2.8996 1.2931-2.8996 2.8996v3.4396c0 1.6064 1.2931 2.8996 2.8996 2.8996h3.6174c1.0839 0 2.0246-0.58904 2.5223-1.4655h1.4986c1.6064 0 2.8996-1.2931 2.8996-2.8996v-0.54105h1.1689c0.10591 0 0.2093-0.0094 0.31006-0.026872 0.27466 0.41636 0.65413 0.75682 1.1012 0.98495v1.2283c0 0.6872 0.55355 1.2402 1.2408 1.2402h1.5472c0.6872 0 1.2402-0.55303 1.2402-1.2402v-0.91209h0.90951c1.6064 0 2.9001-1.2931 2.9001-2.8996v-3.4396c0-1.6064-1.2937-2.8996-2.9001-2.8996zm4.84 10.913c-0.44806 0-0.80874 0.36067-0.80874 0.80874v0.95963c0 0.44806 0.36067 0.80874 0.80874 0.80874h1.0092c0.44807-1e-6 0.80874-0.36067 0.80874-0.80874v-0.95963c0-0.44807-0.36067-0.80874-0.80874-0.80874zm-10.738 1.3663c-0.44807 0-0.80874 0.36067-0.80874 0.80874v0.95963c0 0.44807 0.36067 0.80874 0.80874 0.80874h1.0087c0.44806 0 0.80925-0.36067 0.80925-0.80874v-0.95963c0-0.44806-0.36119-0.80874-0.80925-0.80874zm-10.614 7.0606c-0.76344 0.01921-1.372 0.64046-1.372 1.4087v1.6707c0 0.78043 0.62827 1.4087 1.4087 1.4087h1.757c0.78043 0 1.4092-0.62827 1.4092-1.4087v-1.6707c0-0.78043-0.62879-1.4087-1.4092-1.4087h-1.757c-0.012194 0-0.024572-3.17e-4 -0.03669 0zm20.284 2.1311c-0.67518 0-1.2185 0.54335-1.2185 1.2185v1.4459c0 0.67518 0.54335 1.2185 1.2185 1.2185h1.5203c0.67518 0 1.219-0.54335 1.219-1.2185v-1.4459c0-0.67518-0.54386-1.2185-1.219-1.2185z" display="block" fill="#33d17a"/></clipPath></defs><g><path d="m25.755 22.641c0.36812 0 0.66443-0.29632 0.66443-0.66443v-0.78841c1e-6 -0.36812-0.29632-0.66443-0.66443-0.66443h-0.82916c-0.36812 2e-6 -0.66444 0.29632-0.66444 0.66443v0.78841c-1e-6 0.36812 0.29632 0.66443 0.66444 0.66443zm-23.109-19.995c0.36812 0 0.66443-0.29632 0.66443-0.66443l1e-6 -0.7884c0-0.36812-0.29632-0.66443-0.66444-0.66443h-0.82874c-0.36812 0-0.66486 0.29632-0.66486 0.66443l1e-6 0.7884c0 0.36812 0.29674 0.66443 0.66486 0.66443zm22.314 2.4839c0.62722-0.01578 1.1272-0.52618 1.1272-1.1573v-1.3726c0-0.64118-0.51617-1.1573-1.1573-1.1573h-1.4435c-0.64118 0-1.1578 0.51617-1.1578 1.1573v1.3726c0 0.64118 0.51659 1.1573 1.1578 1.1573l1.4435-1e-6c0.01002-9e-6 0.02019 2.62e-4 0.03014-1e-6zm-22.567 15.505c0.55471 0 1.0011-0.4464 1.0011-1.0011l-1e-6 -1.1879c1e-6 -0.55471-0.4464-1.0011-1.0011-1.0011h-1.2491c-0.55471 0-1.0015 0.4464-1.0015 1.0011v1.1879c0 0.55471 0.44682 1.0011 1.0015 1.0011zm5.7888-16.721h10.096c2.3643 0 4.2677 1.9034 4.2677 4.2677v10.096c0 2.3643-1.9034 4.2677-4.2677 4.2677h-10.096c-2.3643 0-4.2677-1.9034-4.2677-4.2677v-10.096c0-2.3643 1.9034-4.2677 4.2677-4.2677z" display="block" fill="#f66151"/><path d="m4.7972 15.304c0.058729-1.968 0.058729-3.9377 0-5.9057-0.011444-0.38347-0.025106-0.76764 0-1.1505 0.047021-0.71697 0.23546-1.4339 0.61863-2.0417 0.38317-0.60781 0.97141-1.0996 1.6629-1.2947 0.33563-0.09469 0.69204-0.11894 1.0359-0.060774s0.6745 0.19953 0.94813 0.41573c0.27362 0.21619 0.48889 0.50758 0.60598 0.83606 0.1171 0.32848 0.13432 0.6933 0.039355 1.0288-0.087653 0.30972-0.26732 0.58837-0.48915 0.82162s-0.48521 0.42342-0.75924 0.59228c-0.54807 0.33773-1.1494 0.59901-1.6356 1.0209-0.55482 0.48146-0.93112 1.1609-1.0589 1.8843-0.12774 0.7234-0.00862 1.486 0.32102 2.1424 0.25196 0.50178 0.63871 0.95304 1.1485 1.1884 0.25488 0.11769 0.53733 0.17898 0.81767 0.16402 0.28034-0.01497 0.55796-0.10772 0.78333-0.27513 0.27214-0.20216 0.45806-0.50351 0.57378-0.82216 0.11572-0.31865 0.16653-0.65669 0.21126-0.99275 0.044722-0.33605 0.084374-0.67458 0.17929-1 0.094917-0.32546 0.24925-0.64086 0.49309-0.87638 0.22508-0.2174 0.51813-0.35748 0.82354-0.42562 0.30542-0.06814 0.6233-0.06694 0.93363-0.02674 0.62067 0.08039 1.2105 0.31288 1.8206 0.45236 1.2604 0.28816 2.6067 0.16782 3.807-0.31281 1.2003-0.48063 2.2517-1.3162 3.0146-2.36 0.32342-0.44256 0.60271-0.94114 0.65357-1.4869 0.02543-0.27289-0.0087-0.5536-0.1178-0.805-0.10914-0.25141-0.29567-0.47193-0.53577-0.60409-0.24655-0.13571-0.53984-0.17369-0.81881-0.13661s-0.54478 0.14581-0.78804 0.28732c-0.48653 0.28303-0.88608 0.69354-1.3524 1.0088-0.75989 0.51374-1.688 0.75973-2.6051 0.74207-0.91708-0.01766-1.8215-0.29238-2.6209-0.74207-0.69734-0.39225-1.3195-0.91754-1.8232-1.5392" fill="none" opacity=".55935" stroke="#ed333b" stroke-linecap="round" stroke-width=".5631"/><path x="2.6458333" y="2.6458333" width="21.166666" height="21.166666" ry="4.1289382" d="m6.7748 2.6458h12.909c2.2874 0 4.1289 1.8415 4.1289 4.1289v12.909c0 2.2874-1.8415 4.1289-4.1289 4.1289h-12.909c-2.2874 0-4.1289-1.8415-4.1289-4.1289v-12.909c0-2.2874 1.8415-4.1289 4.1289-4.1289z" clip-path="url(#clipPath4869)" fill="#2ec27e"/><path transform="scale(.26458)" d="m32.5 47c-6.925 0-12.5 5.575-12.5 12.5s5.575 12.5 12.5 12.5 12.5-5.575 12.5-12.5-5.575-12.5-12.5-12.5zm35 0c-6.925 0-12.5 5.575-12.5 12.5s5.575 12.5 12.5 12.5 12.5-5.575 12.5-12.5-5.575-12.5-12.5-12.5z" fill="#fff" stroke-linecap="round" stroke-linejoin="round" stroke-miterlimit="0" stroke-width="1.8909"/><path d="m14.883 19.381a1.6536 1.6536 0 0 1-1.6536 1.6536 1.6536 1.6536 0 0 1-1.6536-1.6536 1.6536 1.6536 0 0 1 1.6536-1.6536 1.6536 1.6536 0 0 1 1.6536 1.6536zm-6.2839-5.3578c0.91612 0 1.6536 0.73753 1.6536 1.6536s-0.73753 1.6536-1.6536 1.6536-1.6536-0.73753-1.6536-1.6536 0.73753-1.6536 1.6536-1.6536zm9.2604 0c0.91612 0 1.6536 0.73753 1.6536 1.6536s-0.73753 1.6536-1.6536 1.6536c-0.91612 0-1.6536-0.73753-1.6536-1.6536s0.73753-1.6536 1.6536-1.6536z" fill="#241f31" stroke-linecap="round" stroke-linejoin="round" stroke-width=".39548"/></g></svg>
