<?xml version="1.0" encoding="UTF-8"?>
<!-- Created with Inkscape (http://www.inkscape.org/) --><svg width="100" height="100" version="1.1" viewBox="0 0 26.458 26.458" xmlns="http://www.w3.org/2000/svg"><g transform="matrix(1.3082 0 0 1.3082 -4.0768 -4.0768)" stroke-miterlimit="0"><path d="m19.334 16.863a6.1325 6.1325 0 0 1-6.1325 6.1325 6.1325 6.1325 0 0 1-6.1325-6.1325 6.1325 6.1325 0 0 1 6.1325-6.1325 6.1325 6.1325 0 0 1 6.1325 6.1325z" fill="#ffcc4d" stroke-width="1.5722"/><ellipse cx="10.914" cy="17.637" rx="1.6536" ry="2.268" fill="#fff" stroke-width="2.0949"/><ellipse cx="10.881" cy="17.665" rx=".99219" ry="1.6054" fill="#241f31" stroke-width="1.3652"/><ellipse cx="15.544" cy="17.637" rx="1.6536" ry="2.268" fill="#fff" stroke-width="2.0949"/><ellipse cx="15.511" cy="17.665" rx=".99219" ry="1.6054" fill="#241f31" stroke-width="1.3652"/><path d="m13.229 3.4629c-1.0862 0.01572-2.3883 5.9194-4.9537 9.2918-1.8848 0.42574-2.9827 1.0708-2.9838 1.7529-2.81e-4 1.2398 3.5537 2.2449 7.9378 2.2448 4.3839-3.2e-5 7.9375-1.0051 7.9372-2.2448 1.3e-5 -0.7045-1.1695-1.3681-3.1586-1.7923-1.7365-1.6653-3.8739-9.1927-4.7789-9.2524z" fill="#813d9c" stroke-width="2.0641"/><path d="m14.68 20.272a1.4514 1.4514 0 0 1-1.4514 1.4514 1.4514 1.4514 0 0 1-1.4515-1.4514z" fill="#fff" stroke="#241f31" stroke-linecap="round" stroke-linejoin="round" stroke-width=".4"/></g></svg>
