<?xml version="1.0" encoding="UTF-8"?>
<svg width="100" height="100" version="1.1" viewBox="0 0 26.458 26.458" xmlns="http://www.w3.org/2000/svg"><g style="mix-blend-mode:normal"><path d="m9.2322 6.6582c-0.1196-0.21941-0.22577-0.44614-0.31773-0.6785-0.29996-0.75795-0.44676-1.5915-0.31043-2.3951 0.13633-0.80367 0.57711-1.5725 1.2654-2.0093 0.59987-0.38068 1.3669-0.48635 2.0474-0.28204 0.68045 0.20431 1.2624 0.71505 1.5534 1.3632" fill="none" stroke="#63452c" stroke-linecap="round" stroke-width="1.3581"/><g><path d="m5.9901 7.481a10.186 6.5266 60 0 0-0.55935 12.085 10.186 6.5266 60 0 0 10.745 5.5579 10.186 6.5266 60 0 0 2.1969-2.9851 10.186 6.5266 60 0 0 3.6836-0.41002 10.186 6.5266 60 0 0 0.55935-12.085 10.186 6.5266 60 0 0-10.745-5.5579 10.186 6.5266 60 0 0-2.1967 2.9856 10.186 6.5266 60 0 0-3.6839 0.40958z" fill="#f08a2f" style="mix-blend-mode:normal"/><ellipse transform="rotate(-30)" cx="4.7309" cy="19.66" rx="6.4152" ry="10.865" fill="#ea7710"/><path d="m11.219 17.21a3.6436 3.6436 45 0 0 3.1552 1.8218 3.6436 3.6436 45 0 0 3.1555-1.8219 3.6436 3.6436 45 0 0-1.34e-4 -3.6434z" fill="#241f31"/><path d="m7.3278 17.776c-0.79338 0.45806-1.0633 1.4655-0.60528 2.2589 0.45806 0.79338 1.4655 1.0633 2.2589 0.60528 0.79338-0.45806 1.0633-1.4655 0.60528-2.2589l-0.82682-1.4321zm11.213-6.474 0.82682 1.4321c0.45806 0.79338 1.4655 1.0633 2.2589 0.60528s1.0633-1.4655 0.60528-2.2589c-0.45806-0.79338-1.4655-1.0633-2.2589-0.60528z" fill="#1a5fb4"/></g><path d="m7.241 13.173 3.5434-0.21268-1.9559 2.9623" fill="none" stroke="#241f31" stroke-linecap="round" stroke-linejoin="round" stroke-width="1.065"/><path d="m15.283 8.5294-1.9559 2.9623 3.5434-0.21268" fill="none" stroke="#241f31" stroke-linecap="round" stroke-linejoin="round" stroke-width="1.065" style="mix-blend-mode:normal"/></g></svg>
