<?xml version="1.0" encoding="UTF-8"?>
<svg width="100" height="100" version="1.1" viewBox="0 0 26.458 26.458" xmlns="http://www.w3.org/2000/svg"><g style="mix-blend-mode:normal"><path d="m13.053 5.54c0.0061-0.24982 0.02755-0.49926 0.06409-0.74646 0.1192-0.80639 0.40882-1.6016 0.92872-2.2295 0.5199-0.62783 1.286-1.0733 2.1005-1.1074 0.70984-0.029747 1.427 0.26228 1.9141 0.77945 0.48713 0.51716 0.73579 1.2505 0.66368 1.9573" fill="none" stroke="#63452c" stroke-linecap="round" stroke-width="1.3581"/><g><path d="m9.834 4.6316a6.5266 10.186 0 0 0-6.5267 10.186 6.5266 10.186 0 0 0 6.5267 10.186 6.5266 10.186 0 0 0 3.3951-1.4867 6.5266 10.186 0 0 0 3.3951 1.4867 6.5266 10.186 0 0 0 6.5267-10.186 6.5266 10.186 0 0 0-6.5267-10.186 6.5266 10.186 0 0 0-3.3951 1.4872 6.5266 10.186 0 0 0-3.3951-1.4872z" fill="#f08a2f" style="mix-blend-mode:normal"/><ellipse cx="13.118" cy="14.818" rx="6.4152" ry="10.865" fill="#ea7710"/><path d="m10.09 9.3745a2.3007 3.7227 0 0 0-2.3006 3.7228 2.3007 3.7227 0 0 0 0.23875 1.648h4.1248a2.3007 3.7227 0 0 0 0.23823-1.648 2.3007 3.7227 0 0 0-2.3012-3.7228zm6.1118 0a2.3007 3.7227 0 0 0-2.3012 3.7228 2.3007 3.7227 0 0 0 0.23874 1.648h4.1248a2.3007 3.7227 0 0 0 0.23823-1.648 2.3007 3.7227 0 0 0-2.3006-3.7228zm-6.7035 6.2968a3.6436 3.6436 0 0 0 1.8216 3.1554 3.6436 3.6436 0 0 0 3.6437 0 3.6436 3.6436 0 0 0 1.8216-3.1554z" fill="#241f31"/><path d="m5.8451 15.274c-0.91612 0-1.6536 0.73753-1.6536 1.6536 0 0.91612 0.73753 1.6536 1.6536 1.6536 0.91612 0 1.6536-0.73753 1.6536-1.6536v-1.6536zm12.948 0v1.6536c0 0.91612 0.73753 1.6536 1.6536 1.6536s1.6536-0.73753 1.6536-1.6536c0-0.91612-0.73753-1.6536-1.6536-1.6536z" fill="#1a5fb4"/></g></g></svg>
