<?xml version="1.0" encoding="UTF-8"?>
<svg width="100" height="100" version="1.1" viewBox="0 0 26.458 26.458" xmlns="http://www.w3.org/2000/svg"><g style="mix-blend-mode:normal"><g transform="matrix(-1.0055 0 0 -1.0055 22.49 25.572)" stroke-miterlimit="0"><path d="m0 14.261v-4.6278c0-3.8517 3.1008-6.9525 6.9525-6.9525 3.8517 0 6.8796 3.1015 6.9525 6.9525 0.08556 4.5199 1.3786 8.0808 4.0549 10.485 2.7466 2.4672-7.5682 1.8248-11.007 1.0954-3.7679-0.79908-6.9525-3.1008-6.9525-6.9525z" fill="#eee" stroke-width="2.4432"/><ellipse cx="3.515" cy="9.908" rx="1.9115" ry="3.0929" fill="#241f31" stroke-width="2.2754"/><ellipse cx="8.676" cy="9.9398" rx="1.9115" ry="3.0929" fill="#241f31" stroke-width="2.2754"/><path d="m6.892 12.393a0.79646 0.79646 0 0 1-0.79043 0.79644 0.79646 0.79646 0 0 1-0.8024-0.78437" fill="none" stroke="#241f31" stroke-width=".66146"/></g></g></svg>
