<?xml version="1.0" encoding="UTF-8"?>
<svg width="100" height="100" version="1.1" viewBox="0 0 26.458 26.458" xmlns="http://www.w3.org/2000/svg"><g><g stroke-linecap="round"><path x="3.9136422" y="3.9136438" width="18.631048" height="18.631048" ry="4.2677031" d="m8.1813 3.9136h10.096c2.3643 0 4.2677 1.9034 4.2677 4.2677v10.096c0 2.3643-1.9034 4.2677-4.2677 4.2677h-10.096c-2.3643 0-4.2677-1.9034-4.2677-4.2677v-10.096c0-2.3643 1.9034-4.2677 4.2677-4.2677z" fill="#f66151" stroke-linejoin="round" stroke-miterlimit="0" stroke-width=".4"/><path d="m4.7972 12.228c0.074916-1.3943 0.074916-2.7925 0-4.1868-0.014606-0.27184-0.032015-0.54527 0-0.81561 0.068253-0.57634 0.36404-1.1142 0.77952-1.5194s0.94509-0.68268 1.502-0.84586c0.29813-0.087348 0.60711-0.14346 0.91777-0.14224 0.31066 0.0012207 0.6235 0.061117 0.90306 0.19661 0.27956 0.13549 0.52452 0.3489 0.67718 0.61946 0.15266 0.27056 0.20835 0.59895 0.13134 0.89992-0.072229 0.28226-0.25569 0.52783-0.48218 0.7111-0.22649 0.18327-0.49464 0.30858-0.76908 0.4064-0.54888 0.19564-1.143 0.29282-1.6327 0.60866-0.45223 0.29168-0.78348 0.76227-0.91498 1.2841-0.1315 0.52183-0.064112 1.0896 0.17713 1.5706 0.24556 0.48963 0.67878 0.89262 1.202 1.0548 0.2616 0.08109 0.54251 0.10181 0.81207 0.05337 0.26956-0.04844 0.52714-0.1666 0.73543-0.34443 0.19198-0.1639 0.33947-0.37483 0.45565-0.59893s0.20255-0.46222 0.28723-0.70002c0.16934-0.4756 0.34591-0.97305 0.71454-1.318 0.22887-0.21415 0.52054-0.3554 0.82548-0.42787 0.30494-0.07247 0.62315-0.078244 0.93463-0.043333 0.62297 0.069822 1.2152 0.29817 1.8177 0.4712 1.2187 0.34999 2.5228 0.47439 3.7584 0.18988 1.2356-0.28451 2.3961-1.0065 3.0632-2.0848 0.19607-0.3169 0.35058-0.66938 0.37527-1.0412 0.01234-0.18592-0.0085-0.37493-0.07024-0.55072-0.061753-0.17579-0.16519-0.33802-0.30503-0.46116-0.20801-0.18318-0.48888-0.27218-0.76602-0.27579-0.27714-0.0036147-0.55092 0.073404-0.8023 0.19017-0.50274 0.23352-0.91758 0.61914-1.3909 0.90764-0.77397 0.47174-1.6966 0.67294-2.6026 0.64588-0.906-0.027058-1.7965-0.27462-2.6234-0.64588-0.64761-0.29077-1.2609-0.65785-1.8232-1.0912" fill="none" opacity=".55935" stroke="#ed333b" stroke-width=".47412"/><g stroke-linejoin="round" stroke-miterlimit="0"><path transform="scale(.26458)" d="m48.496 10c0.33659 1.4553 0.51953 2.9707 0.51953 4.5312v11.232c0 11.025-8.8769 19.9-19.902 19.9h-14.779c-1.49 0-2.9391-0.16703-4.334-0.47461v26.486c0 10.152 8.1721 18.324 18.324 18.324h43.352c1.9521 0 3.8281-0.30687 5.5898-0.86719v-7.4551c0-7.5093 5.5165-13.682 12.734-14.705v-34.645h-4.9238c-11.025 0-19.902-8.875-19.902-19.9v-2.4277z" fill="#2ec27e" opacity=".975" stroke-width="1.7494"/><rect x="14.552" y="12.435" width="6.6146" height="6.6146" ry="3.3073" fill="#fff" stroke-width=".5003"/><rect x="16.206" y="14.023" width="3.3073" height="3.3073" ry="1.6536" fill="#241f31" stroke-width=".25015"/><rect x="5.2917" y="12.435" width="6.6146" height="6.6146" ry="3.3073" fill="#fff" stroke-width=".5003"/><rect x="6.9453" y="14.023" width="3.3073" height="3.3073" ry="1.6536" fill="#241f31" stroke-width=".25015"/></g></g><circle cx="13.229" cy="19.381" r="1.6536" fill="#241f31"/></g></svg>
